<mxfile host="app.diagrams.net" modified="2023-11-24T14:20:23.097Z" agent="Mozilla/5.0 (Windows NT 10.0; Win64; x64) AppleWebKit/537.36 (KHTML, like Gecko) Chrome/119.0.0.0 Safari/537.36 Edg/119.0.0.0" etag="Pl9l2wcAHPRof4sy5TsQ" version="22.1.3" type="device">
  <diagram name="Page-1" id="0sPaNrBDai2sRCUtKqBR">
    <mxGraphModel dx="2140" dy="1819" grid="1" gridSize="10" guides="1" tooltips="1" connect="1" arrows="1" fold="1" page="1" pageScale="1" pageWidth="850" pageHeight="1100" math="0" shadow="0">
      <root>
        <mxCell id="0" />
        <mxCell id="1" parent="0" />
        <mxCell id="wWRkLwT0EkWZib2majWL-2" style="edgeStyle=orthogonalEdgeStyle;rounded=0;orthogonalLoop=1;jettySize=auto;html=1;entryX=0.5;entryY=0;entryDx=0;entryDy=0;" edge="1" parent="1" source="wWRkLwT0EkWZib2majWL-31">
          <mxGeometry relative="1" as="geometry">
            <mxPoint x="305" y="130" as="targetPoint" />
          </mxGeometry>
        </mxCell>
        <mxCell id="wWRkLwT0EkWZib2majWL-1" value="Start" style="rounded=1;whiteSpace=wrap;html=1;" vertex="1" parent="1">
          <mxGeometry x="240" y="-10" width="130" height="40" as="geometry" />
        </mxCell>
        <mxCell id="wWRkLwT0EkWZib2majWL-9" style="edgeStyle=orthogonalEdgeStyle;rounded=0;orthogonalLoop=1;jettySize=auto;html=1;entryX=0;entryY=0.5;entryDx=0;entryDy=0;" edge="1" parent="1" source="wWRkLwT0EkWZib2majWL-3" target="wWRkLwT0EkWZib2majWL-11">
          <mxGeometry relative="1" as="geometry">
            <mxPoint x="520" y="270" as="targetPoint" />
          </mxGeometry>
        </mxCell>
        <mxCell id="wWRkLwT0EkWZib2majWL-10" value="Да" style="edgeLabel;html=1;align=center;verticalAlign=middle;resizable=0;points=[];" vertex="1" connectable="0" parent="wWRkLwT0EkWZib2majWL-9">
          <mxGeometry x="-0.308" y="-1" relative="1" as="geometry">
            <mxPoint as="offset" />
          </mxGeometry>
        </mxCell>
        <mxCell id="wWRkLwT0EkWZib2majWL-15" style="edgeStyle=orthogonalEdgeStyle;rounded=0;orthogonalLoop=1;jettySize=auto;html=1;entryX=0.5;entryY=0;entryDx=0;entryDy=0;exitX=0;exitY=0.5;exitDx=0;exitDy=0;" edge="1" parent="1" source="wWRkLwT0EkWZib2majWL-3" target="wWRkLwT0EkWZib2majWL-34">
          <mxGeometry relative="1" as="geometry">
            <mxPoint x="120" y="299.9999999999998" as="targetPoint" />
          </mxGeometry>
        </mxCell>
        <mxCell id="wWRkLwT0EkWZib2majWL-16" value="Нет" style="edgeLabel;html=1;align=center;verticalAlign=middle;resizable=0;points=[];" vertex="1" connectable="0" parent="wWRkLwT0EkWZib2majWL-15">
          <mxGeometry x="-0.032" y="4" relative="1" as="geometry">
            <mxPoint y="-3" as="offset" />
          </mxGeometry>
        </mxCell>
        <mxCell id="wWRkLwT0EkWZib2majWL-3" value="counter &amp;gt;= pair.length" style="rhombus;whiteSpace=wrap;html=1;" vertex="1" parent="1">
          <mxGeometry x="208.75" y="230" width="192.5" height="80" as="geometry" />
        </mxCell>
        <mxCell id="wWRkLwT0EkWZib2majWL-7" style="edgeStyle=orthogonalEdgeStyle;rounded=0;orthogonalLoop=1;jettySize=auto;html=1;exitX=0.5;exitY=1;exitDx=0;exitDy=0;entryX=0.5;entryY=0;entryDx=0;entryDy=0;" edge="1" parent="1" target="wWRkLwT0EkWZib2majWL-3">
          <mxGeometry relative="1" as="geometry">
            <mxPoint x="305" y="190" as="sourcePoint" />
          </mxGeometry>
        </mxCell>
        <mxCell id="wWRkLwT0EkWZib2majWL-36" style="edgeStyle=orthogonalEdgeStyle;rounded=0;orthogonalLoop=1;jettySize=auto;html=1;entryX=0.5;entryY=0;entryDx=0;entryDy=0;" edge="1" parent="1" source="wWRkLwT0EkWZib2majWL-11" target="wWRkLwT0EkWZib2majWL-12">
          <mxGeometry relative="1" as="geometry" />
        </mxCell>
        <mxCell id="wWRkLwT0EkWZib2majWL-11" value="Return validation success" style="rounded=0;whiteSpace=wrap;html=1;" vertex="1" parent="1">
          <mxGeometry x="470" y="240" width="120" height="60" as="geometry" />
        </mxCell>
        <mxCell id="wWRkLwT0EkWZib2majWL-12" value="Stop" style="rounded=1;whiteSpace=wrap;html=1;" vertex="1" parent="1">
          <mxGeometry x="630" y="320" width="130" height="40" as="geometry" />
        </mxCell>
        <mxCell id="wWRkLwT0EkWZib2majWL-18" style="edgeStyle=orthogonalEdgeStyle;rounded=0;orthogonalLoop=1;jettySize=auto;html=1;entryX=0.5;entryY=0;entryDx=0;entryDy=0;" edge="1" parent="1" target="wWRkLwT0EkWZib2majWL-17">
          <mxGeometry relative="1" as="geometry">
            <mxPoint x="120" y="349.9999999999998" as="sourcePoint" />
          </mxGeometry>
        </mxCell>
        <mxCell id="wWRkLwT0EkWZib2majWL-19" style="edgeStyle=orthogonalEdgeStyle;rounded=0;orthogonalLoop=1;jettySize=auto;html=1;entryX=0;entryY=0.5;entryDx=0;entryDy=0;" edge="1" parent="1" source="wWRkLwT0EkWZib2majWL-17" target="wWRkLwT0EkWZib2majWL-21">
          <mxGeometry relative="1" as="geometry">
            <mxPoint x="330" y="420" as="targetPoint" />
          </mxGeometry>
        </mxCell>
        <mxCell id="wWRkLwT0EkWZib2majWL-20" value="Нет" style="edgeLabel;html=1;align=center;verticalAlign=middle;resizable=0;points=[];" vertex="1" connectable="0" parent="wWRkLwT0EkWZib2majWL-19">
          <mxGeometry x="-0.3121" relative="1" as="geometry">
            <mxPoint as="offset" />
          </mxGeometry>
        </mxCell>
        <mxCell id="wWRkLwT0EkWZib2majWL-25" style="edgeStyle=orthogonalEdgeStyle;rounded=0;orthogonalLoop=1;jettySize=auto;html=1;entryX=1;entryY=0.5;entryDx=0;entryDy=0;" edge="1" parent="1" source="wWRkLwT0EkWZib2majWL-17" target="wWRkLwT0EkWZib2majWL-26">
          <mxGeometry relative="1" as="geometry">
            <mxPoint x="-30" y="420" as="targetPoint" />
          </mxGeometry>
        </mxCell>
        <mxCell id="wWRkLwT0EkWZib2majWL-17" value="Validation passed ?" style="rhombus;whiteSpace=wrap;html=1;" vertex="1" parent="1">
          <mxGeometry x="23.75" y="380" width="192.5" height="80" as="geometry" />
        </mxCell>
        <mxCell id="wWRkLwT0EkWZib2majWL-23" style="edgeStyle=orthogonalEdgeStyle;rounded=0;orthogonalLoop=1;jettySize=auto;html=1;entryX=0.548;entryY=1.057;entryDx=0;entryDy=0;entryPerimeter=0;" edge="1" parent="1" source="wWRkLwT0EkWZib2majWL-21" target="wWRkLwT0EkWZib2majWL-12">
          <mxGeometry relative="1" as="geometry">
            <mxPoint x="490" y="419.9999999999998" as="targetPoint" />
          </mxGeometry>
        </mxCell>
        <mxCell id="wWRkLwT0EkWZib2majWL-21" value="Return validation error with message" style="rounded=0;whiteSpace=wrap;html=1;" vertex="1" parent="1">
          <mxGeometry x="310" y="390" width="120" height="60" as="geometry" />
        </mxCell>
        <mxCell id="wWRkLwT0EkWZib2majWL-30" style="edgeStyle=orthogonalEdgeStyle;rounded=0;orthogonalLoop=1;jettySize=auto;html=1;entryX=0;entryY=0;entryDx=0;entryDy=0;exitX=0.5;exitY=0;exitDx=0;exitDy=0;" edge="1" parent="1" source="wWRkLwT0EkWZib2majWL-26" target="wWRkLwT0EkWZib2majWL-3">
          <mxGeometry relative="1" as="geometry">
            <Array as="points">
              <mxPoint x="-130" y="210" />
              <mxPoint x="257" y="210" />
            </Array>
          </mxGeometry>
        </mxCell>
        <mxCell id="wWRkLwT0EkWZib2majWL-26" value="counter = counter + 1" style="rounded=0;whiteSpace=wrap;html=1;" vertex="1" parent="1">
          <mxGeometry x="-220" y="300" width="200" height="50" as="geometry" />
        </mxCell>
        <mxCell id="wWRkLwT0EkWZib2majWL-32" value="" style="edgeStyle=orthogonalEdgeStyle;rounded=0;orthogonalLoop=1;jettySize=auto;html=1;entryX=0.5;entryY=0;entryDx=0;entryDy=0;" edge="1" parent="1" source="wWRkLwT0EkWZib2majWL-1" target="wWRkLwT0EkWZib2majWL-31">
          <mxGeometry relative="1" as="geometry">
            <mxPoint x="305" y="130" as="targetPoint" />
            <mxPoint x="305" y="30" as="sourcePoint" />
          </mxGeometry>
        </mxCell>
        <mxCell id="wWRkLwT0EkWZib2majWL-31" value="Forming array of pairs like: value, validator" style="rounded=0;whiteSpace=wrap;html=1;" vertex="1" parent="1">
          <mxGeometry x="245" y="50" width="120" height="60" as="geometry" />
        </mxCell>
        <mxCell id="wWRkLwT0EkWZib2majWL-33" value="counter = 0" style="rounded=0;whiteSpace=wrap;html=1;" vertex="1" parent="1">
          <mxGeometry x="245" y="130" width="120" height="60" as="geometry" />
        </mxCell>
        <mxCell id="wWRkLwT0EkWZib2majWL-34" value="Calling an exact validator" style="shape=process;whiteSpace=wrap;html=1;backgroundOutline=1;" vertex="1" parent="1">
          <mxGeometry x="60" y="300" width="120" height="60" as="geometry" />
        </mxCell>
      </root>
    </mxGraphModel>
  </diagram>
</mxfile>
